HIERARCHY
ROOT hip
{
  OFFSET 0 0 0
  CHANNELS 6 Xposition Yposition Zposition Zrotation Yrotation Xrotation
  JOINT abdomen
  {
    OFFSET 0 20.6881 -0.73152
    CHANNELS 3 Zrotation Xrotation Yrotation
    JOINT chest
    {
      OFFSET 0 11.7043 -0.48768
      CHANNELS 3 Zrotation Xrotation Yrotation
      JOINT neck
      {
        OFFSET 0 22.1894 -2.19456
        CHANNELS 3 Zrotation Xrotation Yrotation
        JOINT head
        {
          OFFSET -0.24384 7.07133 1.2192
          CHANNELS 3 Zrotation Xrotation Yrotation
          JOINT leftEye
          {
            OFFSET 4.14528 8.04674 8.04672
            CHANNELS 3 Zrotation Xrotation Yrotation
            End Site
            {
              OFFSET 1 0 0
            }
          }
          JOINT rightEye
          {
            OFFSET -3.6576 8.04674 8.04672
            CHANNELS 3 Zrotation Xrotation Yrotation
            End Site
            {
              OFFSET 1 0 0
            }
          }
        }
      }
      JOINT rCollar
      {
        OFFSET -2.68224 19.2634 -4.8768
        CHANNELS 3 Zrotation Xrotation Yrotation
        JOINT rShldr
        {
          OFFSET -8.77824 -1.95073 1.46304
          CHANNELS 3 Zrotation Xrotation Yrotation
          JOINT rForeArm
          {
            OFFSET -28.1742 -1.7115 0.48768
            CHANNELS 3 Zrotation Xrotation Yrotation
            JOINT rHand
            {
              OFFSET -22.5879 0.773209 7.07136
              CHANNELS 3 Zrotation Xrotation Yrotation
              JOINT rThumb1
              {
                OFFSET -1.2192 -0.487915 3.41376
                CHANNELS 3 Zrotation Xrotation Yrotation
                JOINT rThumb2
                {
                  OFFSET -3.37035 -0.52449 3.41376
                  CHANNELS 3 Zrotation Xrotation Yrotation
                  End Site
                  {
                    OFFSET -1.78271 -1.18214 1.43049
                  }
                }
              }
              JOINT rIndex1
              {
                OFFSET -7.75947 0.938293 5.60832
                CHANNELS 3 Zrotation Xrotation Yrotation
                JOINT rIndex2
                {
                  OFFSET -2.54057 -0.884171 1.56538
                  CHANNELS 3 Zrotation Xrotation Yrotation
                  End Site
                  {
                    OFFSET -1.62519 -0.234802 1.16502
                  }
                }
              }
              JOINT rMid1
              {
                OFFSET -8.24714 1.18213 3.41376
                CHANNELS 3 Zrotation Xrotation Yrotation
                JOINT rMid2
                {
                  OFFSET -3.10165 -0.590103 1.0647
                  CHANNELS 3 Zrotation Xrotation Yrotation
                  End Site
                  {
                    OFFSET -2.48547 -0.328903 0.83742
                  }
                }
              }
              JOINT rRing1
              {
                OFFSET -8.82822 0.546677 1.51678
                CHANNELS 3 Zrotation Xrotation Yrotation
                JOINT rRing2
                {
                  OFFSET -2.60934 -0.819778 -0.0198488
                  CHANNELS 3 Zrotation Xrotation Yrotation
                  End Site
                  {
                    OFFSET -2.33842 -0.294052 0.168128
                  }
                }
              }
              JOINT rPinky1
              {
                OFFSET -8.27202 -0.0477905 -0.4584
                CHANNELS 3 Zrotation Xrotation Yrotation
                JOINT rPinky2
                {
                  OFFSET -1.82734 -0.647385 -0.700984
                  CHANNELS 3 Zrotation Xrotation Yrotation
                  End Site
                  {
                    OFFSET -1.69225 -0.51767 -0.607171
                  }
                }
              }
            }
          }
        }
      }
      JOINT lCollar
      {
        OFFSET 2.68224 19.2634 -4.8768
        CHANNELS 3 Zrotation Xrotation Yrotation
        JOINT lShldr
        {
          OFFSET 8.77824 -1.95073 1.46304
          CHANNELS 3 Zrotation Xrotation Yrotation
          JOINT lForeArm
          {
            OFFSET 28.1742 -1.7115 0.48768
            CHANNELS 3 Zrotation Xrotation Yrotation
            JOINT lHand
            {
              OFFSET 22.5879 0.773209 7.07136
              CHANNELS 3 Zrotation Xrotation Yrotation
              JOINT lThumb1
              {
                OFFSET 1.2192 -0.487915 3.41376
                CHANNELS 3 Zrotation Xrotation Yrotation
                JOINT lThumb2
                {
                  OFFSET 3.37035 -0.52449 3.41376
                  CHANNELS 3 Zrotation Xrotation Yrotation
                  End Site
                  {
                    OFFSET 1.78271 -1.18214 1.43049
                  }
                }
              }
              JOINT lIndex1
              {
                OFFSET 7.75947 0.938293 5.60832
                CHANNELS 3 Zrotation Xrotation Yrotation
                JOINT lIndex2
                {
                  OFFSET 2.54057 -0.884171 1.56538
                  CHANNELS 3 Zrotation Xrotation Yrotation
                  End Site
                  {
                    OFFSET 1.62519 -0.234802 1.16502
                  }
                }
              }
              JOINT lMid1
              {
                OFFSET 8.24714 1.18213 3.41376
                CHANNELS 3 Zrotation Xrotation Yrotation
                JOINT lMid2
                {
                  OFFSET 3.10165 -0.590103 1.0647
                  CHANNELS 3 Zrotation Xrotation Yrotation
                  End Site
                  {
                    OFFSET 2.48547 -0.328903 0.83742
                  }
                }
              }
              JOINT lRing1
              {
                OFFSET 8.82822 0.546677 1.51678
                CHANNELS 3 Zrotation Xrotation Yrotation
                JOINT lRing2
                {
                  OFFSET 2.60934 -0.819778 -0.0198488
                  CHANNELS 3 Zrotation Xrotation Yrotation
                  End Site
                  {
                    OFFSET 2.33842 -0.294052 0.168128
                  }
                }
              }
              JOINT lPinky1
              {
                OFFSET 8.27202 -0.0477905 -0.4584
                CHANNELS 3 Zrotation Xrotation Yrotation
                JOINT lPinky2
                {
                  OFFSET 1.82734 -0.647385 -0.700984
                  CHANNELS 3 Zrotation Xrotation Yrotation
                  End Site
                  {
                    OFFSET 1.69225 -0.51767 -0.607171
                  }
                }
              }
            }
          }
        }
      }
    }
  }
  JOINT rButtock
  {
    OFFSET -8.77824 4.35084 1.2192
    CHANNELS 3 Zrotation Xrotation Yrotation
    JOINT rThigh
    {
      OFFSET 0 -1.70687 -2.19456
      CHANNELS 3 Zrotation Xrotation Yrotation
      JOINT rShin
      {
        OFFSET 0 -36.8199 0.73152
        CHANNELS 3 Zrotation Xrotation Yrotation
        JOINT rFoot
        {
          OFFSET 0.73152 -45.1104 -5.12064
          CHANNELS 3 Zrotation Xrotation Yrotation
          End Site
          {
            OFFSET -1.1221 -3.69964 12.103
          }
        }
      }
    }
  }
  JOINT lButtock
  {
    OFFSET 8.77824 4.35084 1.2192
    CHANNELS 3 Zrotation Xrotation Yrotation
    JOINT lThigh
    {
      OFFSET 0 -1.70687 -2.19456
      CHANNELS 3 Zrotation Xrotation Yrotation
      JOINT lShin
      {
        OFFSET 0 -36.8199 0.73152
        CHANNELS 3 Zrotation Xrotation Yrotation
        JOINT lFoot
        {
          OFFSET -0.73152 -45.1104 -5.12064
          CHANNELS 3 Zrotation Xrotation Yrotation
          End Site
          {
            OFFSET 1.1221 -3.69964 12.103
          }
        }
      }
    }
  }
}
MOTION
Frames:	5
Frame Time:	0.00833333
57.2069 119.652 105.085 176.91 2.5644 -146.852 -9.52432 -37.6074 -6.78183 1.78664 12.2366 -0.178565 0.751681 20.303 -6.35237 1.94044 -29.5202 -11.6898 -0.0 0.0 0.0 -0.0 0.0 0.0 -1.16164e-13 -1.858e-13 1.28721e-14 76.0863 12.4659 8.43474 -10.0846 -4.21941 17.9685 -1.27282 30.2527 4.70703 -1.93023e-09 3.59559e-10 1.61565e-09 -3.29227e-09 5.7864e-10 2.83684e-09 -1.93022e-09 3.59564e-10 1.61563e-09 7.73091 5.47488 0.417314 -1.93023e-09 3.59561e-10 1.61564e-09 2.90554 0.965183 0.102902 -1.93022e-09 3.5956e-10 1.61564e-09 10.2786 0.731801 0.0259123 -1.93023e-09 3.59561e-10 1.61565e-09 2.22167 -0.733487 -0.20892 -1.16249e-13 -1.85803e-13 1.25906e-14 -53.6802 45.8706 -18.9843 20.0802 -13.1082 -38.8805 0.101055 9.00767 -1.27658 9.99485e-11 1.53982e-09 3.16633e-10 1.73543e-10 2.65948e-09 5.46521e-10 9.99464e-11 1.53982e-09 3.16639e-10 -7.73091 5.47488 -0.417314 9.99501e-11 1.53982e-09 3.16634e-10 -2.90554 0.965183 -0.102902 9.9945e-11 1.53982e-09 3.16632e-10 -10.2786 0.731801 -0.0259123 9.99476e-11 1.53983e-09 3.1663e-10 -2.22167 -0.733487 0.20892 -2.03217e-16 0.0 -3.88251e-19 -3.11033 -29.7998 -5.85129 -1.43552 63.5137 1.43361 3.24236 25.0517 -10.9921 2.03217e-16 0.0 3.88251e-19 0.734611 -30.9085 6.69475 1.02801 57.0979 -0.781076 -5.25504 38.1921 10.1351
57.3383 120.608 103.566 177.155 2.6006 -146.714 -9.07968 -37.8764 -6.67033 1.7659 12.2577 -0.221797 -0.137809 19.6262 -5.9379 3.11419 -27.5806 -10.6041 -0.0 0.0 0.0 -0.0 0.0 0.0 -1.02449e-13 -2.11506e-13 -6.4605e-16 77.5719 7.27734 6.86505 -8.63411 -3.35166 15.2638 -1.75255 34.755 5.59607 -2.39488e-09 4.54969e-10 1.74539e-09 -4.08605e-09 7.34718e-10 3.07568e-09 -2.39488e-09 4.54976e-10 1.74537e-09 7.73091 5.47488 0.417314 -2.39488e-09 4.54972e-10 1.74539e-09 2.90554 0.965183 0.102902 -2.39487e-09 4.54973e-10 1.74539e-09 10.2786 0.731801 0.0259123 -2.39488e-09 4.54974e-10 1.74539e-09 2.22167 -0.733487 -0.20892 -1.02505e-13 -2.11508e-13 -9.44227e-16 -56.4426 45.1926 -17.3011 19.1564 -11.9865 -36.6694 0.107033 9.28998 -1.3173 -1.96845e-10 2.117e-09 4.04821e-10 -3.40088e-10 3.66174e-09 7.00372e-10 -1.96847e-10 2.117e-09 4.04824e-10 -7.73091 5.47488 -0.417314 -1.96844e-10 2.117e-09 4.04821e-10 -2.90554 0.965183 -0.102902 -1.9685e-10 2.117e-09 4.04818e-10 -10.2786 0.731801 -0.0259123 -1.96847e-10 2.117e-09 4.04818e-10 -2.22167 -0.733487 0.20892 -2.03217e-16 0.0 -3.88251e-19 -2.98553 -31.0434 -6.27332 -1.51888 64.4322 1.51933 3.21062 23.7016 -11.731 2.03217e-16 0.0 3.88251e-19 1.09402 -31.5209 6.53963 1.01605 56.8795 -0.766 -5.28328 37.4304 10.4003
57.4054 121.491 102.052 177.196 2.488 -146.844 -8.78363 -37.7999 -6.5365 1.77604 12.2505 -0.229202 -0.724225 19.2249 -5.83776 4.18572 -25.7096 -10.1244 -0.0 0.0 0.0 -0.0 0.0 0.0 -9.52744e-14 -2.2552e-13 7.57439e-15 78.7869 1.12335 5.02657 -7.44133 -2.66418 13.1972 -2.38619 39.6923 6.66771 -2.65399e-09 4.4289e-10 1.65933e-09 -4.52877e-09 7.15599e-10 2.941e-09 -2.65399e-09 4.42899e-10 1.65931e-09 7.73091 5.47488 0.417314 -2.65399e-09 4.42896e-10 1.65932e-09 2.90554 0.965183 0.102902 -2.65398e-09 4.42897e-10 1.65932e-09 10.2786 0.731801 0.0259123 -2.65399e-09 4.42898e-10 1.65933e-09 2.22167 -0.733487 -0.20892 -9.52778e-14 -2.25522e-13 7.27932e-15 -58.9486 44.3554 -15.9201 18.1331 -10.8449 -34.3074 0.0985123 8.95526 -1.2689 -1.63477e-10 1.91339e-09 2.60422e-10 -2.83856e-10 3.30976e-09 4.50818e-10 -1.6348e-10 1.91338e-09 2.60425e-10 -7.73091 5.47488 -0.417314 -1.63477e-10 1.91338e-09 2.60423e-10 -2.90554 0.965183 -0.102902 -1.63484e-10 1.91338e-09 2.60419e-10 -10.2786 0.731801 -0.0259123 -1.63479e-10 1.91339e-09 2.60419e-10 -2.22167 -0.733487 0.20892 -2.03217e-16 0.0 -3.88251e-19 -3.02623 -32.186 -6.7257 -1.62928 65.5363 1.62783 3.22379 22.7346 -12.4774 2.03217e-16 0.0 3.88251e-19 1.27617 -32.0466 6.32795 1.01676 56.8683 -0.760326 -5.34822 37.0396 10.6327
57.5041 122.215 100.622 177.257 2.3559 -146.821 -8.52015 -37.5066 -6.34955 1.8037 12.2009 -0.238354 -1.12082 18.9599 -5.92014 5.21542 -23.9088 -9.99343 -0.0 0.0 0.0 -0.0 0.0 0.0 -8.96429e-14 -2.34366e-13 2.83548e-14 79.5161 -5.84829 2.92772 -6.57898 -2.25489 11.6273 -3.26002 44.9172 7.99445 -2.7736e-09 3.19525e-10 1.40082e-09 -4.73267e-09 5.10536e-10 2.50873e-09 -2.7736e-09 3.19535e-10 1.4008e-09 7.73091 5.47488 0.417314 -2.7736e-09 3.19533e-10 1.40082e-09 2.90554 0.965183 0.102902 -2.77359e-09 3.19535e-10 1.40082e-09 10.2786 0.731801 0.0259123 -2.7736e-09 3.19535e-10 1.40083e-09 2.22167 -0.733487 -0.20892 -8.95736e-14 -2.34367e-13 2.80752e-14 -61.2429 43.3958 -14.7551 17.0401 -9.72373 -31.8378 0.0797999 8.13445 -1.15074 3.55457e-11 1.39262e-09 -3.33422e-12 5.80581e-11 2.40715e-09 -5.77602e-12 3.55418e-11 1.39261e-09 -3.33027e-12 -7.73091 5.47488 -0.417314 3.55448e-11 1.39262e-09 -3.33181e-12 -2.90554 0.965183 -0.102902 3.55377e-11 1.39261e-09 -3.33741e-12 -10.2786 0.731801 -0.0259123 3.55444e-11 1.39262e-09 -3.33861e-12 -2.22167 -0.733487 0.20892 -2.03217e-16 0.0 -3.88251e-19 -3.14752 -33.2949 -7.23148 -1.75841 66.706 1.75191 3.27723 22.0235 -13.2547 2.03217e-16 0.0 3.88251e-19 1.39528 -32.5704 6.06226 1.02505 56.9843 -0.760818 -5.4409 36.9237 10.8353
57.5314 122.78 99.0077 177.393 2.1112 -146.951 -8.30599 -37.0315 -6.15494 1.82379 12.1749 -0.256194 -1.45747 18.7922 -6.0404 6.29489 -22.476 -9.93234 -0.0 0.0 0.0 -0.0 0.0 0.0 -7.94274e-14 -2.24626e-13 4.6947e-14 79.701 -12.4543 0.816316 -5.94104 -2.00346 10.4126 -4.34305 49.6392 9.4656 -2.65581e-09 1.76787e-10 1.00984e-09 -4.53327e-09 2.73624e-10 1.83975e-09 -2.65581e-09 1.76797e-10 1.00982e-09 7.73091 5.47488 0.417314 -2.65581e-09 1.76796e-10 1.00983e-09 2.90554 0.965183 0.102902 -2.6558e-09 1.76799e-10 1.00983e-09 10.2786 0.731801 0.0259123 -2.65581e-09 1.76799e-10 1.00984e-09 2.22167 -0.733487 -0.20892 -7.92934e-14 -2.24626e-13 4.66861e-14 -63.3428 42.3038 -13.708 15.9385 -8.66146 -29.4709 0.0623157 7.19044 -1.01573 2.08893e-10 7.79698e-10 -2.41694e-10 3.56052e-10 1.34504e-09 -4.18338e-10 2.08888e-10 7.79676e-10 -2.41689e-10 -7.73091 5.47488 -0.417314 2.08892e-10 7.79694e-10 -2.41691e-10 -2.90554 0.965183 -0.102902 2.08885e-10 7.79673e-10 -2.41697e-10 -10.2786 0.731801 -0.0259123 2.08893e-10 7.79694e-10 -2.417e-10 -2.22167 -0.733487 0.20892 -2.03217e-16 0.0 -3.88251e-19 -3.33327 -34.4056 -7.73503 -1.90146 67.8806 1.88975 3.32639 21.5369 -13.8903 2.03217e-16 0.0 3.88251e-19 1.4833 -33.1061 5.82769 1.04009 57.2407 -0.772643 -5.48635 36.8674 10.9357
